<?xml version="1.0" encoding="utf-8"?>
<!-- Generator: Adobe Illustrator 15.0.0, SVG Export Plug-In  -->
<!DOCTYPE svg PUBLIC "-//W3C//DTD SVG 1.1//EN" "http://www.w3.org/Graphics/SVG/1.1/DTD/svg11.dtd" [
	<!ENTITY ns_flows "http://ns.adobe.com/Flows/1.0/">
]>
<svg version="1.1"
	 xmlns="http://www.w3.org/2000/svg" xmlns:xlink="http://www.w3.org/1999/xlink" xmlns:a="http://ns.adobe.com/AdobeSVGViewerExtensions/3.0/"
	 x="0px" y="0px" width="353px" height="60px" viewBox="0 -0.5 353 60" overflow="visible" enable-background="new 0 -0.5 353 60"
	 xml:space="preserve">
<defs>
</defs>
<path fill="#E30613" d="M0,0v43.407l32.993,8.694L32.854,19.62c0,0-0.443-9.929-9.367-13.964c-1.559-0.705-3.394-1.094-5.375-1.586
	c-1.322-0.328-2.622-0.687-4.101-1.03c-3.414-0.792-5.193-1.533-9.304-2.398C1.789,0.027,0,0,0,0z"/>
<path fill="#E30613" d="M66.992,0v43.407L34,52.102l0.139-32.481c0,0,0.443-9.929,9.367-13.964c1.559-0.705,3.394-1.094,5.375-1.586
	c1.321-0.328,2.622-0.687,4.101-1.031c3.413-0.792,5.193-1.533,9.303-2.398C65.203,0.027,66.992,0,66.992,0z"/>
<polygon fill="#E30613" points="66.983,46.965 34.238,52.575 34.794,54.129 66.983,49.012 "/>
<polygon fill="#E30613" points="66.983,51.943 35.041,54.591 35.567,56.164 66.983,54.025 "/>
<polygon fill="#E30613" points="66.983,56.275 35.795,56.719 36.338,58.234 66.983,58.254 "/>
<polygon fill="#E30613" points="0.009,46.965 32.754,52.575 32.198,54.129 0.009,49.012 "/>
<polygon fill="#E30613" points="0.009,51.943 31.951,54.591 31.426,56.164 0.009,54.025 "/>
<polygon fill="#E30613" points="0.009,56.275 31.197,56.719 30.654,58.234 0.009,58.254 "/>
<path fill="#2D2D2D" d="M345.874,50.248c-1.14,1.616-2.638,2.995-4.491,2.995c-2.039,0-3.115-0.839-3.115-2.937
	c0-2.813,1.498-5.031,7.605-8.505L345.874,50.248L345.874,50.248z M338.747,35.395c0.119-2.758,0.778-4.553,3.832-4.553
	c2.218,0,3.294,1.438,3.294,4.131v1.918c-9.643,3.653-14.314,7.547-14.314,14.614c0,4.134,2.275,7.248,6.826,7.248
	c3.234,0,5.333-1.079,7.85-3.114c0.057,0.779,0.297,1.617,0.356,2.514H353c-0.177-1.077-0.417-2.396-0.417-3.412V34.077
	c0-5.87-3.535-8.747-9.763-8.747c-6.289,0-10.422,3.535-10.783,10.064H338.747z M328.314,58.152V14.908h-6.709v43.244H328.314z
	 M317.307,58.152V14.908h-6.711v43.244H317.307z M299.463,50.248c-1.139,1.616-2.636,2.995-4.49,2.995
	c-2.037,0-3.117-0.839-3.117-2.937c0-2.813,1.498-5.031,7.607-8.505V50.248z M292.336,35.395c0.119-2.758,0.779-4.553,3.833-4.553
	c2.215,0,3.294,1.438,3.294,4.131v1.918c-9.643,3.653-14.314,7.547-14.314,14.614c0,4.134,2.275,7.248,6.826,7.248
	c3.235,0,5.332-1.079,7.848-3.114c0.061,0.779,0.3,1.617,0.359,2.514h6.408c-0.18-1.077-0.42-2.396-0.42-3.412V34.077
	c0-5.87-3.533-8.747-9.761-8.747c-6.291,0-10.425,3.535-10.783,10.064H292.336z M266.533,58.152v-22.16
	c0-2.875,2.218-4.312,4.492-4.312c1.977,0,3.115,0.36,4.313,0.658V25.33h-1.379c-3.174,0-5.989,1.617-7.608,4.374h-0.117V25.93
	h-6.407v32.222H266.533z M237.559,14.908v6.469h6.467v-6.469H237.559z M253.488,21.377v-6.469h-6.469v6.469H253.488z
	 M235.104,46.773c0,7.067,2.754,11.979,10.42,11.979s10.422-4.912,10.422-11.979v-9.463c0-7.069-2.756-11.98-10.422-11.98
	s-10.42,4.911-10.42,11.98V46.773z M249.236,47.971c0,3.715-1.317,5.271-3.713,5.271s-3.715-1.559-3.715-5.271V36.111
	c0-3.711,1.318-5.27,3.715-5.27c2.396,0,3.713,1.557,3.713,5.27V47.971z M222.062,58.152h6.709V31.439h3.832V25.93h-3.832v-3.955
	c0-1.558,0.598-2.155,2.215-2.155h1.918v-5.51h-3.355c-4.73,0-7.486,2.396-7.486,7.607v4.013h-3.953v5.509h3.953V58.152z
	 M208.958,25.93h-7.188l-7.367,11.38h-0.119V14.908h-6.708v43.244h6.708V46.895l3.174-4.733h0.121l5.391,15.991h6.768l-7.784-22.041
	L208.958,25.93z M162.853,46.773c0,7.067,2.753,11.979,10.421,11.979c7.666,0,10.421-4.912,10.421-11.979v-9.463
	c0-7.069-2.756-11.98-10.421-11.98c-7.668,0-10.421,4.911-10.421,11.98V46.773z M176.986,47.971c0,3.715-1.316,5.271-3.712,5.271
	s-3.713-1.559-3.713-5.271V36.111c0-3.711,1.318-5.27,3.713-5.27c2.396,0,3.712,1.557,3.712,5.27V47.971z M145.488,32.518
	c1.319-0.957,2.516-1.675,3.833-1.675c1.797,0,3.234,0.956,3.234,5.209v11.978c0,4.255-1.437,5.214-3.234,5.214
	c-1.316,0-2.514-0.72-3.833-1.677V32.518z M145.13,58.152V54.8h0.118c2.219,2.814,3.836,3.953,7.188,3.953
	c4.192,0,6.829-3.114,6.829-8.985V34.314c0-5.871-2.637-8.984-6.829-8.984c-2.935,0-4.311,1.2-6.947,3.354V14.908h-6.709v43.244
	H145.13z M112.32,58.152V32.878c1.557-1.139,2.873-2.036,4.312-2.036s2.396,0.717,2.396,2.335v24.976h6.707V32.1
	c0-4.193-2.095-6.77-5.63-6.77c-3.893,0-5.33,1.438-8.146,3.834V25.93h-6.349v32.222H112.32z M101.911,58.152v-6.467H88.613V38.984
	h9.584v-6.467h-9.584V21.377h12.46v-6.469H81.187v43.244H101.911z"/>
</svg>
